<mxfile host="app.diagrams.net" modified="2022-02-11T16:51:07.184Z" agent="5.0 (Macintosh; Intel Mac OS X 10_15_7) AppleWebKit/605.1.15 (KHTML, like Gecko) Version/15.1 Safari/605.1.15" etag="9zriZ8AGjL9sPvfjYse0" version="16.5.3" type="github">
  <diagram id="MOLHsbS4DxyO5GS3lgKV" name="Page-1">
    <mxGraphModel dx="946" dy="533" grid="1" gridSize="10" guides="1" tooltips="1" connect="1" arrows="1" fold="1" page="1" pageScale="1" pageWidth="850" pageHeight="1100" math="0" shadow="0">
      <root>
        <mxCell id="0" />
        <mxCell id="1" parent="0" />
        <mxCell id="m36DTsK4p7fWm_qxzAgF-2" value="Start" style="rounded=1;whiteSpace=wrap;html=1;fillColor=#FFB570;" vertex="1" parent="1">
          <mxGeometry x="365" width="120" height="60" as="geometry" />
        </mxCell>
        <mxCell id="m36DTsK4p7fWm_qxzAgF-3" value="" style="endArrow=classic;html=1;rounded=0;exitX=0.5;exitY=1;exitDx=0;exitDy=0;" edge="1" parent="1" source="m36DTsK4p7fWm_qxzAgF-2">
          <mxGeometry width="50" height="50" relative="1" as="geometry">
            <mxPoint x="410" y="160" as="sourcePoint" />
            <mxPoint x="425" y="120" as="targetPoint" />
          </mxGeometry>
        </mxCell>
        <mxCell id="m36DTsK4p7fWm_qxzAgF-4" value="Enter number of &lt;br&gt;elements &lt;br&gt;in the array = N and size&lt;br&gt;&amp;nbsp;of the rotation = D&amp;nbsp;" style="shape=parallelogram;perimeter=parallelogramPerimeter;whiteSpace=wrap;html=1;fixedSize=1;fillColor=#7EA6E0;gradientColor=none;" vertex="1" parent="1">
          <mxGeometry x="345" y="120" width="160" height="60" as="geometry" />
        </mxCell>
        <mxCell id="m36DTsK4p7fWm_qxzAgF-10" value="" style="edgeStyle=orthogonalEdgeStyle;rounded=0;orthogonalLoop=1;jettySize=auto;html=1;" edge="1" parent="1" source="m36DTsK4p7fWm_qxzAgF-5" target="m36DTsK4p7fWm_qxzAgF-9">
          <mxGeometry relative="1" as="geometry" />
        </mxCell>
        <mxCell id="m36DTsK4p7fWm_qxzAgF-5" value="Enter the array NUM" style="shape=parallelogram;perimeter=parallelogramPerimeter;whiteSpace=wrap;html=1;fixedSize=1;fillColor=#7EA6E0;gradientColor=none;" vertex="1" parent="1">
          <mxGeometry x="345" y="240" width="160" height="60" as="geometry" />
        </mxCell>
        <mxCell id="m36DTsK4p7fWm_qxzAgF-7" value="" style="endArrow=classic;html=1;rounded=0;exitX=0.5;exitY=1;exitDx=0;exitDy=0;" edge="1" parent="1">
          <mxGeometry width="50" height="50" relative="1" as="geometry">
            <mxPoint x="424" y="180" as="sourcePoint" />
            <mxPoint x="424" y="240" as="targetPoint" />
          </mxGeometry>
        </mxCell>
        <mxCell id="m36DTsK4p7fWm_qxzAgF-8" value="" style="endArrow=classic;html=1;rounded=0;exitX=0.5;exitY=1;exitDx=0;exitDy=0;" edge="1" parent="1">
          <mxGeometry width="50" height="50" relative="1" as="geometry">
            <mxPoint x="425" y="300" as="sourcePoint" />
            <mxPoint x="425" y="360" as="targetPoint" />
          </mxGeometry>
        </mxCell>
        <mxCell id="m36DTsK4p7fWm_qxzAgF-9" value="Replace first D elements of the array with the last (N-D) elements" style="rounded=0;whiteSpace=wrap;html=1;fillColor=#97D077;gradientColor=none;" vertex="1" parent="1">
          <mxGeometry x="365" y="360" width="120" height="60" as="geometry" />
        </mxCell>
        <mxCell id="m36DTsK4p7fWm_qxzAgF-11" value="" style="endArrow=classic;html=1;rounded=0;exitX=0.5;exitY=1;exitDx=0;exitDy=0;" edge="1" parent="1">
          <mxGeometry width="50" height="50" relative="1" as="geometry">
            <mxPoint x="424" y="420" as="sourcePoint" />
            <mxPoint x="424" y="480" as="targetPoint" />
          </mxGeometry>
        </mxCell>
        <mxCell id="m36DTsK4p7fWm_qxzAgF-12" value="Output NUM" style="shape=parallelogram;perimeter=parallelogramPerimeter;whiteSpace=wrap;html=1;fixedSize=1;fillColor=#7EA6E0;gradientColor=none;" vertex="1" parent="1">
          <mxGeometry x="345" y="480" width="160" height="60" as="geometry" />
        </mxCell>
        <mxCell id="m36DTsK4p7fWm_qxzAgF-13" value="" style="endArrow=classic;html=1;rounded=0;exitX=0.5;exitY=1;exitDx=0;exitDy=0;" edge="1" parent="1">
          <mxGeometry width="50" height="50" relative="1" as="geometry">
            <mxPoint x="425" y="540" as="sourcePoint" />
            <mxPoint x="425" y="600" as="targetPoint" />
          </mxGeometry>
        </mxCell>
        <mxCell id="m36DTsK4p7fWm_qxzAgF-14" value="End" style="rounded=1;whiteSpace=wrap;html=1;fillColor=#FFB570;" vertex="1" parent="1">
          <mxGeometry x="365" y="600" width="120" height="60" as="geometry" />
        </mxCell>
      </root>
    </mxGraphModel>
  </diagram>
</mxfile>
